<svg width="106" height="106" viewBox="0 0 106 106" fill="none" xmlns="http://www.w3.org/2000/svg">
<path d="M83.9167 83.9166H22.0833V35.3333H83.9167M83.9167 13.25H79.5V4.41663H70.6667V13.25H35.3333V4.41663H26.5V13.25H22.0833C19.7406 13.25 17.4938 14.1806 15.8372 15.8372C14.1807 17.4938 13.25 19.7405 13.25 22.0833V83.9166C13.25 86.2594 14.1807 88.5062 15.8372 90.1627C17.4938 91.8193 19.7406 92.75 22.0833 92.75H83.9167C86.2594 92.75 88.5062 91.8193 90.1628 90.1627C91.8194 88.5062 92.75 86.2594 92.75 83.9166V22.0833C92.75 19.7405 91.8194 17.4938 90.1628 15.8372C88.5062 14.1806 86.2594 13.25 83.9167 13.25ZM73.0075 48.8483L68.3258 44.1666L46.7725 65.72L37.4092 56.3566L32.7275 61.0383L46.7725 75.0833L73.0075 48.8483Z" fill="#0061FF"/>
</svg>
