<svg width="106" height="106" viewBox="0 0 106 106" fill="none" xmlns="http://www.w3.org/2000/svg">
<g clip-path="url(#clip0_54_56)">
<path d="M53 7.36108C27.03 7.36108 5.88892 25.8522 5.88892 48.5833C5.88892 71.3144 27.03 89.8055 53 89.8055C57.8588 89.7999 62.6937 89.1262 67.3689 87.8033L83.6517 98.1677C84.0962 98.4529 84.6093 98.6133 85.1371 98.6321C85.6649 98.6509 86.188 98.5273 86.6516 98.2744C87.1153 98.0215 87.5024 97.6486 87.7724 97.1946C88.0423 96.7407 88.1853 96.2226 88.1861 95.6944V75.8783C91.8703 72.344 94.8103 68.1084 96.833 63.4209C98.8557 58.7333 99.9202 53.6885 99.9639 48.5833C100.111 25.8522 78.97 7.36108 53 7.36108ZM76.5556 48.5833C76.5556 49.3642 76.2454 50.1132 75.6932 50.6653C75.141 51.2175 74.3921 51.5278 73.6111 51.5278H32.3889C31.608 51.5278 30.8591 51.2175 30.3069 50.6653C29.7547 50.1132 29.4445 49.3642 29.4445 48.5833C29.4445 47.8024 29.7547 47.0535 30.3069 46.5013C30.8591 45.9491 31.608 45.6389 32.3889 45.6389H73.6111C74.3921 45.6389 75.141 45.9491 75.6932 46.5013C76.2454 47.0535 76.5556 47.8024 76.5556 48.5833ZM66.9861 63.3055C66.9861 64.0864 66.6759 64.8354 66.1237 65.3876C65.5715 65.9398 64.8226 66.25 64.0417 66.25H41.9584C41.1774 66.25 40.4285 65.9398 39.8763 65.3876C39.3241 64.8354 39.0139 64.0864 39.0139 63.3055C39.0139 62.5246 39.3241 61.7757 39.8763 61.2235C40.4285 60.6713 41.1774 60.3611 41.9584 60.3611H64.0417C64.8226 60.3611 65.5715 60.6713 66.1237 61.2235C66.6759 61.7757 66.9861 62.5246 66.9861 63.3055ZM30.2689 33.8611C30.2689 33.0802 30.5791 32.3312 31.1313 31.779C31.6835 31.2269 32.4324 30.9166 33.2134 30.9166H72.7867C73.5676 30.9166 74.3165 31.2269 74.8687 31.779C75.4209 32.3312 75.7311 33.0802 75.7311 33.8611C75.7311 34.642 75.4209 35.3909 74.8687 35.9431C74.3165 36.4953 73.5676 36.8055 72.7867 36.8055H33.2134C32.4324 36.8055 31.6835 36.4953 31.1313 35.9431C30.5791 35.3909 30.2689 34.642 30.2689 33.8611Z" fill="#0061FF"/>
</g>
<defs>
<clipPath id="clip0_54_56">
<rect width="106" height="106" fill="white"/>
</clipPath>
</defs>
</svg>
