<svg width="106" height="106" viewBox="0 0 106 106" fill="none" xmlns="http://www.w3.org/2000/svg">
<path d="M65.5433 71.815C78.8817 74.3325 88.3333 80.7808 88.3333 88.3333V97.1666H17.6667V88.3333C17.6667 80.7808 27.1183 74.3325 40.4567 71.815L53 92.75L65.5433 71.815ZM35.3333 35.3333H70.6667V44.1666C70.6667 48.8521 68.8054 53.3457 65.4922 56.6589C62.1791 59.972 57.6855 61.8333 53 61.8333C48.3145 61.8333 43.8209 59.972 40.5078 56.6589C37.1946 53.3457 35.3333 48.8521 35.3333 44.1666V35.3333ZM35.3333 30.9166L37.1442 12.8083C37.254 11.7151 37.7674 10.7021 38.5841 9.96704C39.4008 9.23202 40.4621 8.8278 41.5608 8.83331H64.4833C66.7358 8.83331 68.635 10.5558 68.8558 12.8083L70.6667 30.9166H35.3333ZM53 13.25H48.5833V17.6666H44.1667V22.0833H48.5833V26.5H53V22.0833H57.4167V17.6666H53V13.25Z" fill="#0061FF"/>
</svg>
