<svg width="241" height="50" viewBox="0 0 241 50" fill="none" xmlns="http://www.w3.org/2000/svg">
<path d="M21.875 27.0833H16.6667V20.8333H21.875V15.625H28.125V20.8333H33.3333V27.0833H28.125V32.2917H21.875V27.0833ZM25 4.16667L8.33334 10.4167V23.1042C8.33334 33.625 15.4375 43.4375 25 45.8333C34.5625 43.4375 41.6667 33.625 41.6667 23.1042V10.4167L25 4.16667Z" fill="#0061FF"/>
<path d="M88.1065 7.43682V33.9801H81.6308V18.0617L75.6852 33.9801H70.4592L64.4757 18.0239V33.9801H58V7.43682H65.6497L73.1101 25.8129L80.4947 7.43682H88.1065Z" fill="#0061FF"/>
<path d="M114.349 12.8816L101.095 44H94.1266L98.974 33.2617L90.3775 12.8816H97.6106L102.496 26.0776L107.343 12.8816H114.349Z" fill="#0061FF"/>
<path d="M139.716 7.43682V33.9801H133.24V23.0527H123.167V33.9801H116.691V7.43682H123.167V17.8348H133.24V7.43682H139.716Z" fill="#0061FF"/>
<path d="M164.31 23.0905C164.31 23.6955 164.272 24.3257 164.196 24.9811H149.541C149.642 26.2919 150.058 27.3002 150.791 28.006C151.548 28.6866 152.469 29.0269 153.555 29.0269C155.171 29.0269 156.294 28.3463 156.925 26.9851H163.818C163.464 28.3715 162.821 29.6192 161.886 30.7284C160.978 31.8375 159.829 32.7071 158.44 33.3373C157.052 33.9675 155.499 34.2826 153.782 34.2826C151.712 34.2826 149.869 33.8415 148.253 32.9592C146.637 32.0769 145.375 30.8166 144.466 29.1781C143.557 27.5396 143.103 25.6239 143.103 23.4308C143.103 21.2378 143.545 19.3221 144.428 17.6836C145.337 16.0451 146.6 14.7847 148.215 13.9025C149.831 13.0202 151.687 12.5791 153.782 12.5791C155.827 12.5791 157.645 13.0076 159.235 13.8647C160.826 14.7217 162.063 15.9443 162.947 17.5323C163.856 19.1204 164.31 20.9731 164.31 23.0905ZM157.683 21.3891C157.683 20.2799 157.304 19.3977 156.547 18.7423C155.789 18.0869 154.843 17.7592 153.706 17.7592C152.621 17.7592 151.699 18.0743 150.942 18.7045C150.21 19.3347 149.755 20.2295 149.579 21.3891H157.683Z" fill="#0061FF"/>
<path d="M166.439 23.393C166.439 21.2252 166.843 19.3221 167.651 17.6836C168.484 16.0451 169.607 14.7847 171.021 13.9025C172.435 13.0202 174.013 12.5791 175.755 12.5791C177.244 12.5791 178.544 12.8816 179.655 13.4866C180.791 14.0915 181.662 14.8856 182.268 15.8687V12.8816H188.744V33.9801H182.268V30.993C181.637 31.9761 180.754 32.7701 179.617 33.3751C178.507 33.9801 177.206 34.2826 175.717 34.2826C174 34.2826 172.435 33.8415 171.021 32.9592C169.607 32.0517 168.484 30.7788 167.651 29.1403C166.843 27.4766 166.439 25.5609 166.439 23.393ZM182.268 23.4308C182.268 21.8176 181.814 20.5446 180.905 19.6119C180.021 18.6793 178.936 18.2129 177.648 18.2129C176.361 18.2129 175.262 18.6793 174.354 19.6119C173.47 20.5194 173.028 21.7798 173.028 23.393C173.028 25.0063 173.47 26.2919 174.354 27.2498C175.262 28.1824 176.361 28.6488 177.648 28.6488C178.936 28.6488 180.021 28.1824 180.905 27.2498C181.814 26.3171 182.268 25.0441 182.268 23.4308Z" fill="#0061FF"/>
<path d="M199.905 6V33.9801H193.429V6H199.905Z" fill="#0061FF"/>
<path d="M216.375 28.4975V33.9801H213.08C210.733 33.9801 208.902 33.4129 207.589 32.2786C206.277 31.1191 205.62 29.2411 205.62 26.6448V18.2507H203.045V12.8816H205.62V7.7393H212.096V12.8816H216.337V18.2507H212.096V26.7204C212.096 27.3506 212.247 27.8043 212.55 28.0816C212.853 28.3589 213.358 28.4975 214.065 28.4975H216.375Z" fill="#0061FF"/>
<path d="M232.972 12.6547C235.395 12.6547 237.339 13.4614 238.804 15.0746C240.268 16.6627 241 18.8557 241 21.6537V33.9801H234.562V22.5234C234.562 21.1118 234.196 20.0153 233.464 19.2338C232.732 18.4524 231.747 18.0617 230.51 18.0617C229.273 18.0617 228.288 18.4524 227.556 19.2338C226.824 20.0153 226.458 21.1118 226.458 22.5234V33.9801H219.982V6H226.458V15.7174C227.114 14.7847 228.011 14.0411 229.147 13.4866C230.283 12.932 231.558 12.6547 232.972 12.6547Z" fill="#0061FF"/>
</svg>
