<svg width="106" height="106" viewBox="0 0 106 106" fill="none" xmlns="http://www.w3.org/2000/svg">
<path d="M26.5 15.9C23.6887 15.9 20.9925 17.0168 19.0047 19.0047C17.0168 20.9926 15.9 23.6887 15.9 26.5V51.7174C19.3041 49.442 23.2366 48.0812 27.3191 47.7662C31.4015 47.4512 35.4963 48.1925 39.2091 49.9187C42.922 51.645 46.1279 54.298 48.5182 57.6225C50.9086 60.9469 52.4027 64.8307 52.8569 68.9H71.5606C72.2634 68.9 72.9375 69.1792 73.4344 69.6762C73.9314 70.1732 74.2106 70.8472 74.2106 71.55C74.2106 72.2528 73.9314 72.9269 73.4344 73.4239C72.9375 73.9208 72.2634 74.2 71.5606 74.2H52.8516C52.5564 76.846 51.8201 79.4239 50.6733 81.8267L58.9466 90.1H79.5053C82.3166 90.1 85.0127 88.9832 87.0006 86.9954C88.9885 85.0075 90.1053 82.3113 90.1053 79.5V26.5C90.1053 23.6887 88.9885 20.9926 87.0006 19.0047C85.0127 17.0168 82.3166 15.9 79.5053 15.9H26.5ZM39.75 38.425C39.75 39.4793 39.3312 40.4903 38.5857 41.2358C37.8403 41.9812 36.8292 42.4 35.775 42.4C34.7208 42.4 33.7097 41.9812 32.9642 41.2358C32.2188 40.4903 31.8 39.4793 31.8 38.425C31.8 37.3708 32.2188 36.3597 32.9642 35.6143C33.7097 34.8688 34.7208 34.45 35.775 34.45C36.8292 34.45 37.8403 34.8688 38.5857 35.6143C39.3312 36.3597 39.75 37.3708 39.75 38.425ZM50.35 37.1H71.55C72.2528 37.1 72.9269 37.3792 73.4238 37.8762C73.9208 38.3732 74.2 39.0472 74.2 39.75C74.2 40.4528 73.9208 41.1269 73.4238 41.6239C72.9269 42.1208 72.2528 42.4 71.55 42.4H50.35C49.6472 42.4 48.9731 42.1208 48.4762 41.6239C47.9792 41.1269 47.7 40.4528 47.7 39.75C47.7 39.0472 47.9792 38.3732 48.4762 37.8762C48.9731 37.3792 49.6472 37.1 50.35 37.1ZM47.7 55.65C47.7 54.9472 47.9792 54.2732 48.4762 53.7762C48.9731 53.2792 49.6472 53 50.35 53H71.55C72.2528 53 72.9269 53.2792 73.4238 53.7762C73.9208 54.2732 74.2 54.9472 74.2 55.65C74.2 56.3528 73.9208 57.0269 73.4238 57.5239C72.9269 58.0208 72.2528 58.3 71.55 58.3H50.35C49.6472 58.3 48.9731 58.0208 48.4762 57.5239C47.9792 57.0269 47.7 56.3528 47.7 55.65ZM12.6405 63.0965C10.7302 66.8293 10.141 71.0993 10.969 75.2099C11.797 79.3206 13.9932 83.0295 17.1996 85.7317C20.406 88.4339 24.4334 89.9701 28.6249 90.0896C32.8164 90.2092 36.9248 88.9051 40.28 86.39L53.7579 99.9474C54.2555 100.444 54.9301 100.723 55.6333 100.723C56.3365 100.722 57.0107 100.442 57.5076 99.9448C58.0045 99.4472 58.2834 98.7726 58.2829 98.0694C58.2824 97.3661 58.0026 96.6919 57.505 96.195L43.99 82.68C45.5289 80.6245 46.6243 78.2719 47.2069 75.7711C47.7895 73.2703 47.8465 70.6757 47.3744 68.1518C46.9022 65.6278 45.9112 63.2293 44.4641 61.1082C43.017 58.987 41.1452 57.1894 38.9673 55.8292C36.7894 54.4689 34.3529 53.5756 31.8119 53.2059C29.2709 52.8361 26.6808 52.9979 24.2055 53.681C21.7303 54.3642 19.4239 55.5538 17.4322 57.1745C15.4406 58.7952 13.8071 60.8118 12.6352 63.0965H12.6405ZM40.1687 64.1883C41.1543 65.6346 41.8436 67.2617 42.1969 68.9759C42.5501 70.69 42.5603 72.4571 42.2268 74.1752C41.8932 75.8933 41.2227 77.5283 40.2537 78.9857C39.2848 80.4432 38.0367 81.6943 36.5816 82.6667C35.1264 83.6391 33.4931 84.3136 31.7758 84.6513C30.0585 84.9889 28.2914 84.983 26.5764 84.6339C24.8614 84.2848 23.2326 83.5993 21.784 82.6172C20.3354 81.635 19.0957 80.3756 18.1366 78.9117C16.2221 75.9898 15.539 72.4301 16.2359 69.007C16.9327 65.584 18.9532 62.5746 21.8576 60.6337C24.762 58.6928 28.3154 57.9773 31.7446 58.643C35.1738 59.3087 38.2014 61.3017 40.1687 64.1883Z" fill="#0061FF"/>
</svg>
